<svg width="16" height="16" viewBox="0 0 16 16" fill="none" xmlns="http://www.w3.org/2000/svg">
<path d="M12.8245 8.42448L9.2245 12.0245C9.11178 12.1372 8.95891 12.2005 8.7995 12.2005C8.64009 12.2005 8.48722 12.1372 8.3745 12.0245C8.26178 11.9118 8.19846 11.7589 8.19846 11.5995C8.19846 11.4401 8.26178 11.2872 8.3745 11.1745L10.95 8.59998H3.6C3.44087 8.59998 3.28826 8.53677 3.17574 8.42425C3.06321 8.31173 3 8.15911 3 7.99998C3 7.84085 3.06321 7.68824 3.17574 7.57572C3.28826 7.4632 3.44087 7.39998 3.6 7.39998H10.95L8.3755 4.82398C8.26278 4.71127 8.19946 4.55839 8.19946 4.39898C8.19946 4.23958 8.26278 4.0867 8.3755 3.97398C8.48822 3.86127 8.64109 3.79794 8.8005 3.79794C8.95991 3.79794 9.11278 3.86127 9.2255 3.97398L12.8255 7.57398C12.8814 7.6298 12.9258 7.69612 12.9561 7.76913C12.9863 7.84215 13.0018 7.92041 13.0017 7.99944C13.0016 8.07847 12.9859 8.1567 12.9555 8.22964C12.9251 8.30258 12.8806 8.3688 12.8245 8.42448Z" fill="white"/>
</svg>
